<?xml version="1.0" encoding="iso-8859-1"?>
<!-- Generator: Adobe Illustrator 27.0.0, SVG Export Plug-In . SVG Version: 6.00 Build 0)  -->
<svg version="1.1" id="&#xB808;&#xC774;&#xC5B4;_1" xmlns="http://www.w3.org/2000/svg" xmlns:xlink="http://www.w3.org/1999/xlink"
	 x="0px" y="0px" viewBox="0 0 56 56" style="enable-background:new 0 0 56 56;" xml:space="preserve">
<g>
	<path style="fill:#FF4800;" d="M40,38H16V16c0-4.418,3.582-8,8-8h8c4.418,0,8,3.582,8,8V38z"/>
	<path style="fill:#E6E6E6;" d="M44,42H12v-2c0-1.105,0.895-2,2-2h28c1.105,0,2,0.895,2,2V42z"/>
	<path style="fill:#CCCCCC;" d="M44,48H12c-1.105,0-2-0.895-2-2v-2c0-1.105,0.895-2,2-2h32c1.105,0,2,0.895,2,2v2
		C46,47.105,45.105,48,44,48z"/>
	<circle style="fill:#FFFFFF;" cx="22" cy="32" r="2"/>
	<g>
		<path style="fill:#FFFFFF;" d="M22,28c-1.104,0-2-0.896-2-2v-8c0-3.309,2.691-6,6-6h4c1.104,0,2,0.896,2,2s-0.896,2-2,2h-4
			c-1.103,0-2,0.897-2,2v8C24,27.104,23.104,28,22,28z"/>
	</g>
</g>
</svg>
