<?xml version="1.0" encoding="iso-8859-1"?>
<!-- Generator: Adobe Illustrator 27.0.0, SVG Export Plug-In . SVG Version: 6.00 Build 0)  -->
<svg version="1.1" id="&#xB808;&#xC774;&#xC5B4;_1" xmlns="http://www.w3.org/2000/svg" xmlns:xlink="http://www.w3.org/1999/xlink"
	 x="0px" y="0px" viewBox="0 0 56 56" style="enable-background:new 0 0 56 56;" xml:space="preserve">
<g>
	<path d="M34,10l-20,8H6c-1.104,0-2,0.895-2,2v8l4,18c0,1.105,0.896,2,2,2h8c1.104,0,2-0.895,2-2l-3.317-14.927L34,38
		c1.104,0,2-0.895,2-2V12C36,10.895,35.104,10,34,10z M8,22h4v4H8V22z M11.653,44L8.542,30h3.805l3.111,14H11.653z M32,32.892
		l-16-6.4v-4.984l16-6.4V32.892z"/>
	<path d="M50,26h-6c-1.105,0-2-0.895-2-2v0c0-1.105,0.895-2,2-2h6c1.105,0,2,0.895,2,2v0C52,25.105,51.105,26,50,26z"/>
	<g>
		<path d="M42.002,15c-0.734,0-1.44-0.405-1.791-1.106c-0.494-0.988-0.094-2.189,0.895-2.684l6-3c0.99-0.495,2.19-0.092,2.684,0.895
			c0.494,0.988,0.094,2.189-0.895,2.684l-6,3C42.607,14.933,42.302,15,42.002,15z"/>
	</g>
	<g>
		<path d="M47.998,39c-0.3,0-0.605-0.068-0.893-0.211l-6-3c-0.988-0.494-1.389-1.695-0.895-2.684
			c0.493-0.987,1.693-1.39,2.684-0.895l6,3c0.988,0.494,1.389,1.695,0.895,2.684C49.438,38.595,48.732,39,47.998,39z"/>
	</g>
</g>
</svg>
