<?xml version="1.0" encoding="iso-8859-1"?>
<!-- Generator: Adobe Illustrator 27.0.0, SVG Export Plug-In . SVG Version: 6.00 Build 0)  -->
<svg version="1.1" id="&#xB808;&#xC774;&#xC5B4;_1" xmlns="http://www.w3.org/2000/svg" xmlns:xlink="http://www.w3.org/1999/xlink"
	 x="0px" y="0px" viewBox="0 0 56 56" style="enable-background:new 0 0 56 56;" xml:space="preserve">
<path d="M40,36l-0.152,0.152C42.44,32.779,44,28.573,44,24c0-11.028-8.972-20-20-20S4,12.972,4,24s8.972,20,20,20
	c4.573,0,8.779-1.56,12.152-4.152L36,40l10,10l4-4L40,36z M24,40c-8.822,0-16-7.178-16-16S15.178,8,24,8s16,7.178,16,16
	S32.822,40,24,40z"/>
</svg>
