<?xml version="1.0" encoding="iso-8859-1"?>
<!-- Generator: Adobe Illustrator 27.0.0, SVG Export Plug-In . SVG Version: 6.00 Build 0)  -->
<svg version="1.1" id="&#xB808;&#xC774;&#xC5B4;_1" xmlns="http://www.w3.org/2000/svg" xmlns:xlink="http://www.w3.org/1999/xlink"
	 x="0px" y="0px" viewBox="0 0 56 56" style="enable-background:new 0 0 56 56;" xml:space="preserve">
<path d="M47.675,24.5c-0.515-2.914-1.653-5.609-3.284-7.941l3.055-3.055l-4.95-4.95l-3.055,3.055
	c-2.332-1.631-5.027-2.768-7.941-3.284V4h-7v4.325c-2.914,0.515-5.609,1.653-7.941,3.284l-3.055-3.055l-4.95,4.95l3.055,3.055
	c-1.631,2.332-2.768,5.027-3.284,7.941H4v7h4.325c0.515,2.914,1.653,5.609,3.284,7.941l-3.055,3.055l4.95,4.95l3.055-3.055
	c2.332,1.631,5.027,2.768,7.941,3.284V52h7v-4.325c2.914-0.515,5.609-1.653,7.941-3.284l3.055,3.055l4.95-4.95l-3.055-3.055
	c1.631-2.332,2.768-5.027,3.284-7.941H52v-7H47.675z M28,38c-5.523,0-10-4.477-10-10s4.477-10,10-10c5.523,0,10,4.477,10,10
	S33.523,38,28,38z"/>
</svg>
