<?xml version="1.0" encoding="iso-8859-1"?>
<!-- Generator: Adobe Illustrator 27.0.0, SVG Export Plug-In . SVG Version: 6.00 Build 0)  -->
<svg version="1.1" id="&#xB808;&#xC774;&#xC5B4;_1" xmlns="http://www.w3.org/2000/svg" xmlns:xlink="http://www.w3.org/1999/xlink"
	 x="0px" y="0px" viewBox="0 0 56 56" style="enable-background:new 0 0 56 56;" xml:space="preserve">
<g>
	<path d="M44,12v32H12V12H44 M46,8H10c-1.105,0-2,0.895-2,2v36c0,1.105,0.895,2,2,2h36c1.105,0,2-0.895,2-2V10
		C48,8.895,47.105,8,46,8L46,8z"/>
	<path d="M20,32h-2c-1.105,0-2-0.895-2-2v-8c0-1.105,0.895-2,2-2h2c1.105,0,2,0.895,2,2v8C22,31.105,21.105,32,20,32z"/>
	<path d="M38,32h-4v-4c0-1.105-0.895-2-2-2h-2c-1.105,0-2,0.895-2,2v4h-4c-1.105,0-2,0.895-2,2v2c0,1.105,0.895,2,2,2h6h2h6
		c1.105,0,2-0.895,2-2v-2C40,32.895,39.105,32,38,32z"/>
</g>
</svg>
