<?xml version="1.0" encoding="iso-8859-1"?>
<!-- Generator: Adobe Illustrator 27.0.0, SVG Export Plug-In . SVG Version: 6.00 Build 0)  -->
<svg version="1.1" id="&#xB808;&#xC774;&#xC5B4;_1" xmlns="http://www.w3.org/2000/svg" xmlns:xlink="http://www.w3.org/1999/xlink"
	 x="0px" y="0px" viewBox="0 0 56 56" style="enable-background:new 0 0 56 56;" xml:space="preserve">
<g>
	<polygon points="48,36 40,36 36,32 44,32 44,8 12,8 12,32 20,32 16,36 8,36 8,4 48,4 	"/>
</g>
<g>
	<rect x="16" y="12" width="10" height="6"/>
</g>
<g>
	<rect x="16" y="22" width="8" height="6"/>
</g>
<g>
	<rect x="30" y="12" width="10" height="6"/>
</g>
<g>
	<rect x="32" y="22" width="8" height="6"/>
</g>
<polygon points="39,39 28,28 17,39 20,42 26,36 26,52 30,52 30,36 36,42 "/>
<polygon points="24,28 26,26 26,22 24,22 "/>
<polygon points="32,28 30,26 30,22 32,22 "/>
</svg>
