<?xml version="1.0" encoding="iso-8859-1"?>
<!-- Generator: Adobe Illustrator 27.0.0, SVG Export Plug-In . SVG Version: 6.00 Build 0)  -->
<svg version="1.1" id="&#xB808;&#xC774;&#xC5B4;_1" xmlns="http://www.w3.org/2000/svg" xmlns:xlink="http://www.w3.org/1999/xlink"
	 x="0px" y="0px" viewBox="0 0 56 56" style="enable-background:new 0 0 56 56;" xml:space="preserve">
<path d="M24,38l9-9c0.552-0.552,0.552-1.447,0-2l-9-9c-0.552-0.552-1.447-0.552-2,0l-1,1c-0.552,0.552-0.552,1.447,0,2l5,5H10
	c-1.105,0-2,0.895-2,2v0c0,1.105,0.895,2,2,2h16l-5,5c-0.552,0.552-0.552,1.447,0,2l1,1C22.552,38.552,23.448,38.552,24,38z"/>
<path d="M24,14l4,4v-5c0-0.552,0.448-1,1-1h14c0.552,0,1,0.448,1,1v30c0,0.552-0.448,1-1,1H30c-0.552,0-1-0.448-1-1v-6l-5,5v4
	c0,1.105,0.895,2,2,2h20c1.105,0,2-0.895,2-2V10c0-1.105-0.895-2-2-2H26c-1.105,0-2,0.895-2,2V14z"/>
</svg>
