<?xml version="1.0" encoding="iso-8859-1"?>
<!-- Generator: Adobe Illustrator 27.0.0, SVG Export Plug-In . SVG Version: 6.00 Build 0)  -->
<svg version="1.1" id="&#xB808;&#xC774;&#xC5B4;_1" xmlns="http://www.w3.org/2000/svg" xmlns:xlink="http://www.w3.org/1999/xlink"
	 x="0px" y="0px" viewBox="0 0 56 56" style="enable-background:new 0 0 56 56;" xml:space="preserve">
<path d="M49.114,39.402c0.159-0.294,0.312-0.593,0.459-0.895c0.03-0.062,0.061-0.123,0.09-0.185c0.134-0.28,0.261-0.563,0.384-0.848
	c0.038-0.088,0.076-0.177,0.113-0.266c0.112-0.268,0.218-0.538,0.32-0.811c0.042-0.111,0.082-0.223,0.122-0.335
	c0.092-0.257,0.18-0.516,0.263-0.777c0.043-0.134,0.083-0.269,0.124-0.404c0.073-0.245,0.145-0.492,0.211-0.74
	c0.042-0.157,0.079-0.316,0.118-0.475c0.056-0.233,0.112-0.465,0.162-0.7c0.038-0.182,0.071-0.366,0.105-0.549
	c0.041-0.218,0.083-0.435,0.117-0.655c0.033-0.211,0.059-0.424,0.087-0.637c0.026-0.198,0.055-0.394,0.076-0.594
	c0.027-0.256,0.044-0.514,0.063-0.772c0.012-0.161,0.028-0.32,0.037-0.482C51.988,28.854,52,28.428,52,28C52,14.745,41.255,4,28,4
	S4,14.745,4,28c0,0.428,0.012,0.854,0.035,1.276c0.008,0.162,0.025,0.321,0.037,0.482c0.019,0.258,0.036,0.517,0.063,0.772
	c0.021,0.199,0.05,0.396,0.076,0.594c0.028,0.213,0.054,0.426,0.087,0.637c0.035,0.22,0.077,0.437,0.117,0.655
	c0.034,0.183,0.067,0.367,0.105,0.549c0.05,0.235,0.106,0.468,0.162,0.7c0.039,0.159,0.076,0.318,0.118,0.475
	c0.066,0.249,0.137,0.495,0.211,0.74c0.041,0.135,0.081,0.27,0.124,0.404c0.083,0.261,0.172,0.52,0.263,0.777
	c0.04,0.112,0.081,0.224,0.122,0.335c0.102,0.273,0.209,0.543,0.32,0.811c0.037,0.089,0.075,0.177,0.113,0.266
	c0.123,0.286,0.25,0.569,0.384,0.848c0.03,0.062,0.06,0.123,0.09,0.185c0.147,0.302,0.299,0.6,0.459,0.895
	c0.016,0.029,0.033,0.058,0.049,0.088c1.319,2.411,3.033,4.575,5.065,6.394c0,0,0,0,0,0c0.097,0.087,0.205,0.163,0.303,0.248
	c0.354,0.307,0.716,0.604,1.088,0.89c0.177,0.136,0.355,0.269,0.536,0.401c0.394,0.286,0.797,0.559,1.208,0.822
	c0.098,0.062,0.188,0.134,0.287,0.195c0.002,0.001,0.005,0.003,0.007,0.004c0.042,0.026,0.086,0.046,0.128,0.071
	c0.479,0.292,0.972,0.561,1.472,0.819c0.066,0.034,0.129,0.075,0.195,0.109c0.046,0.023,0.09,0.047,0.136,0.07
	c0.04,0.02,0.082,0.035,0.122,0.054c0.51,0.25,1.032,0.479,1.562,0.693c0.043,0.017,0.083,0.039,0.126,0.056
	c0.073,0.029,0.146,0.058,0.219,0.086c0.034,0.013,0.07,0.022,0.104,0.035c0.548,0.209,1.106,0.397,1.673,0.566
	c0.024,0.007,0.047,0.017,0.07,0.024c0.086,0.025,0.173,0.049,0.26,0.074c0.026,0.007,0.053,0.012,0.079,0.019
	c0.591,0.165,1.191,0.309,1.799,0.429c0.011,0.002,0.021,0.005,0.031,0.007c0.085,0.016,0.17,0.03,0.255,0.045
	c0.015,0.003,0.03,0.004,0.045,0.006c0.643,0.117,1.293,0.212,1.952,0.276c0.002,0,0.005,0.001,0.007,0.001
	c0.061,0.006,0.122,0.009,0.183,0.014c0.005,0,0.01,0,0.015,0.001C26.568,51.962,27.28,52,28,52s1.432-0.038,2.136-0.1
	c0.005,0,0.01,0,0.015-0.001c0.061-0.005,0.123-0.008,0.183-0.014c0.002,0,0.005-0.001,0.007-0.001
	c0.659-0.064,1.309-0.16,1.952-0.276c0.015-0.003,0.03-0.004,0.045-0.006c0.085-0.016,0.17-0.029,0.255-0.045
	c0.011-0.002,0.021-0.005,0.031-0.007c0.609-0.119,1.208-0.264,1.799-0.429c0.026-0.007,0.053-0.012,0.079-0.019
	c0.087-0.024,0.173-0.048,0.26-0.074c0.024-0.007,0.047-0.017,0.07-0.024c0.567-0.169,1.124-0.357,1.673-0.566
	c0.034-0.013,0.07-0.022,0.104-0.035c0.073-0.028,0.146-0.057,0.219-0.086c0.043-0.017,0.083-0.039,0.126-0.056
	c0.53-0.214,1.052-0.443,1.562-0.693c0.04-0.019,0.082-0.034,0.122-0.054c0.046-0.023,0.09-0.047,0.136-0.07
	c0.067-0.034,0.129-0.075,0.195-0.109c0.5-0.258,0.993-0.528,1.472-0.819c0.042-0.025,0.086-0.046,0.128-0.071
	c0.002-0.001,0.005-0.003,0.007-0.004c0.099-0.061,0.189-0.133,0.287-0.195c0.411-0.262,0.814-0.536,1.208-0.822
	c0.181-0.131,0.359-0.265,0.536-0.401c0.372-0.286,0.734-0.584,1.088-0.89c0.099-0.086,0.206-0.161,0.303-0.248c0,0,0,0,0,0
	c2.032-1.819,3.746-3.983,5.065-6.394C49.081,39.46,49.098,39.432,49.114,39.402z M36,18c0,4.411-3.589,8-8,8s-8-3.589-8-8
	s3.589-8,8-8S36,13.589,36,18z M28,48c-5.448,0-10.389-2.454-14-6v-4c0-3.308,2.692-6,6-6h16c3.308,0,6,2.692,6,6v4
	C38.389,45.546,33.448,48,28,48z"/>
</svg>
