<?xml version="1.0" encoding="iso-8859-1"?>
<!-- Generator: Adobe Illustrator 27.0.0, SVG Export Plug-In . SVG Version: 6.00 Build 0)  -->
<svg version="1.1" id="&#xB808;&#xC774;&#xC5B4;_1" xmlns="http://www.w3.org/2000/svg" xmlns:xlink="http://www.w3.org/1999/xlink"
	 x="0px" y="0px" viewBox="0 0 56 56" style="enable-background:new 0 0 56 56;" xml:space="preserve">
<g>
	<path d="M28,10c9.925,0,18,8.075,18,18s-8.075,18-18,18s-18-8.075-18-18S18.075,10,28,10 M28,8C16.954,8,8,16.954,8,28
		s8.954,20,20,20c11.046,0,20-8.954,20-20S39.046,8,28,8L28,8z"/>
</g>
<g>
	<rect x="27" y="24" width="2" height="16"/>
</g>
<g>
	<path d="M28,20L28,20c-1.105,0-2-0.895-2-2v0c0-1.105,0.895-2,2-2h0c1.105,0,2,0.895,2,2v0C30,19.105,29.105,20,28,20z"/>
</g>
</svg>
