<?xml version="1.0" standalone="no"?>
<!DOCTYPE svg PUBLIC "-//W3C//DTD SVG 20010904//EN"
 "http://www.w3.org/TR/2001/REC-SVG-20010904/DTD/svg10.dtd">
<svg version="1.0" xmlns="http://www.w3.org/2000/svg"
 width="361.000000pt" height="128.000000pt" viewBox="0 0 361.000000 128.000000"
 preserveAspectRatio="xMidYMid meet">

<g transform="translate(0.000000,128.000000) scale(0.100000,-0.100000)"
fill="#000000" stroke="none">
<path d="M260 835 l0 -285 145 0 145 0 0 -140 0 -140 420 0 420 0 0 140 0 140
-140 0 -140 0 0 140 0 140 -140 0 -140 0 0 -140 0 -141 -142 3 -143 3 -3 283
-2 282 -140 0 -140 0 0 -285z"/>
<path d="M2460 695 l0 -425 55 0 55 0 0 425 0 425 -55 0 -55 0 0 -425z"/>
<path d="M2880 880 l0 -210 200 0 200 0 0 40 0 40 -140 0 -140 0 0 130 0 130
140 0 140 0 0 40 0 40 -200 0 -200 0 0 -210z"/>
<path d="M2060 883 c-67 -117 -99 -182 -93 -191 4 -7 22 -22 40 -33 l31 -20
58 103 c31 57 61 109 67 116 7 9 27 -17 74 -100 35 -62 66 -114 68 -116 2 -2
22 9 44 24 l41 27 -34 61 c-93 166 -175 301 -184 304 -5 1 -56 -77 -112 -175z"/>
<path d="M3020 470 l0 -110 -140 0 -140 0 0 -45 0 -45 340 0 340 0 0 45 0 45
-140 0 -140 0 0 110 0 110 -60 0 -60 0 0 -110z"/>
</g>
</svg>
